<?xml version="1.0" encoding="UTF-8"?>
<svg version="1.1" viewBox="0 0 2048 1645" width="946" height="760" xmlns="http://www.w3.org/2000/svg">
<path transform="translate(1018,428)" d="m0 0h35l38 3 20 3 26 6 31 9 27 10 25 11 25 14 24 15 18 13 13 10 14 12 14 13 7 8 12 13 7 8 11 13 12 16 10 15 8 13 11 19 11 22 11 27 9 27 6 25 5 27 3 24 1 12 1 34-2 37-3 25-7 36-9 31-10 26-11 24-12 23-13 21-13 19-11 14-12 14-22 24-15 14-11 9-13 11-18 13-14 9-21 12-27 14-29 12-30 10-34 8-23 4-38 4h-43l-36-4-33-6-32-8-26-9-30-13-20-10-18-10-19-12-19-14-28-24-20-20-7-8-10-11-9-11-8-10-14-21-15-25-10-19-13-30-9-25-8-26-5-24-4-26-4-44v-21l4-45 6-33 5-20 5-16 10-28 11-25 11-22 16-26 11-16 10-13 24-28 12-13 12-12 11-9 15-12 14-10 15-10 26-16 23-12 19-8 27-10 26-8 35-8 36-4z"/>
<path transform="translate(848,765)" d="m0 0h388v31l-2 1-28 1v138l5 5 17 13 4 4-21 1h-37l-2-1-1-68v-92l-117-1 1 273 12 18-2 2h-57l-1-3 9-13 3-7 1-270h-108l-1 161-1 1h-58l-2-2 11-8 14-11 2-3v-137l-30-2-1-4 1-26z" fill="#84B6F5"/>
<path transform="translate(872,637)" d="m0 0h376v20l-369 1-13 4-9 6-6 8-4 12v11l4 12 4 6 8 7 10 4 375 1v21l-383-1-10-3-11-7-10-10-7-11-4-11-2-11v-9l3-13 7-13 8-9 11-8 11-5z" fill="#84B6F5"/>
<path transform="translate(1099,818)" d="m0 0h32l1 7v180l4 2v2l6 2 8 7v2l4 2 2 3-5 1-52-1-1-1v-205z" fill="#84B6F5"/>
<path transform="translate(947,818)" d="m0 0h34v204l-1 3h-58l5-5h2v-2l11-8 6-5 1-4z" fill="#84B6F5"/>
<path transform="translate(888,673)" d="m0 0h360v12l-1 1h-359l-1-1v-10z" fill="#F8FBFE"/>
<path transform="translate(888,702)" d="m0 0h359l1 1v10l-1 1h-358l-2-5z" fill="#FCFEFE"/>
</svg>
